<svg width="413.8" height="65.501" xmlns="http://www.w3.org/2000/svg"><path d="M79.4 48.9H67L64.4 64h-19l11-62.5h30a26.531 26.531 0 0 1 6.52.73q8.472 2.154 10.095 10.675a23.517 23.517 0 0 1 .385 4.395q0 7.5-2.1 13.55a54.433 54.433 0 0 1-1.567 4.026q-.816 1.856-1.689 3.388a24.827 24.827 0 0 1-1.394 2.186 19.177 19.177 0 0 1-4.165 4.186 24.594 24.594 0 0 1-2.835 1.814 19.718 19.718 0 0 1-7.094 2.257 25.012 25.012 0 0 1-3.156.193ZM43.2 59.2l-.8 4.5L0 59.2h43.2Zm3.4-19.3-.8 4.5-42.4-4.5h43.2Zm-1.7 9.6-.8 4.5-42.4-4.5h43.2Zm5-28.8-.8 4.5-42.3-4.5h43.1Zm1.7-9.6-.8 4.5-42.3-4.5h43.1Zm1.7-9.6L52.5 6 10.2 1.5h43.1Zm-5.1 28.8-.8 4.5-42.3-4.5h43.1Zm21.6 2.6h4.4q3.4 0 5.15-.75 1.75-.75 2.25-3.45a781.584 781.584 0 0 0 .305-1.745q.943-5.442.992-6.277a1.356 1.356 0 0 0 .003-.078 3.67 3.67 0 0 0-.112-.942Q82.49 18.536 81.4 18.1a6.519 6.519 0 0 0-1.069-.313q-1.136-.24-2.775-.279a27.541 27.541 0 0 0-.656-.008h-4.4l-2.7 15.4Z"/><path d="m143.5 54.1-3.9 9.9h-20l26.3-62.5h29.4l4.4 62.5h-20.1l-.4-9.9h-15.7Zm-25.2 5.1-1.9 4.4-41-4.4h42.9Zm4.1-9.7-1.9 4.4-41-4.4h42.9Zm4-9.6-1.8 4.4-41-4.4h42.8Zm4.1-9.6-1.9 4.4-40.9-4.4h42.8Zm4-9.6-1.8 4.4-40.9-4.4h42.7Zm4-9.6-1.8 4.3-40.8-4.3h42.6Zm2.3-5.3L100 1.5h42.6l-1.8 4.3Zm8.9 32.4h8V20.7h-1l-7 17.5Z"/><path d="m206.8 62.9 5.6-16.5a71.029 71.029 0 0 0 7.072 1.573q3.823.636 7.293.716a42.943 42.943 0 0 0 .985.011q4.67 0 8.188-.271a54.443 54.443 0 0 0 3.162-.329l.8-5-8.3-.8q-9.5-.9-13.45-4.3a11.078 11.078 0 0 1-3.687-6.589 16.467 16.467 0 0 1-.263-3.011q0-2.657.581-5.897a46.385 46.385 0 0 1 .019-.103 51.879 51.879 0 0 1 1.568-6.484Q218.792 8.269 223.2 4.8a19.039 19.039 0 0 1 5.63-2.971Q233.977.057 241.464.002A65.682 65.682 0 0 1 241.95 0a109.74 109.74 0 0 1 10.504.479q5.541.533 10.38 1.662a65.179 65.179 0 0 1 1.466.359l-5.2 16a142.89 142.89 0 0 0-5.101-.791q-4.892-.662-8.362-.706a38.43 38.43 0 0 0-.487-.003 93.984 93.984 0 0 0-3.734.071q-2.941.117-5.316.429l-.8 4.9 6.7.7q8.93.963 13.337 3.957a12.171 12.171 0 0 1 1.163.893 12.319 12.319 0 0 1 4.233 8.515A17.15 17.15 0 0 1 260.8 38a33.414 33.414 0 0 1-1.247 8.885A41.577 41.577 0 0 1 258.1 51.2a41.436 41.436 0 0 1-1.292 2.749q-.904 1.743-1.858 3.101a15.007 15.007 0 0 1-4.042 3.897 17.04 17.04 0 0 1-.158.103 36.555 36.555 0 0 1-1.998 1.209q-1.405.787-2.652 1.291a14.92 14.92 0 0 1-1.744.575q-1.593.425-3.656.675a53.875 53.875 0 0 1-3.759.427q-2.014.162-4.33.228a116.48 116.48 0 0 1-3.311.045 102.203 102.203 0 0 1-12.526-.733A78.714 78.714 0 0 1 206.8 62.9Zm18.5-18.5-52.9-4.5h43.1a14.061 14.061 0 0 0 3.463 2.418q1.66.841 3.72 1.444a30.879 30.879 0 0 0 2.617.638Zm-14-19.2-42.4-4.5H212q-.5 2-.7 4.5Zm-39.6-14.1h43l-1.5 4.4-41.5-4.4Zm-1.9 19.2h41.5a26.183 26.183 0 0 0 .206 1.899q.136.917.332 1.698a12.414 12.414 0 0 0 .262.903l-42.3-4.5Zm9.4-28.8h43a16.877 16.877 0 0 0-2.456 1.97A22.79 22.79 0 0 0 217.8 5.6l-38.6-4.1Zm27.4 52.4-35.9-4.4h37.4l-1.5 4.4Zm-3.2 9.7L169 59.2h35.9l-1.5 4.4Z"/><path d="m341.8 1.5-2.9 16h-13.8L317 64h-19l8.1-46.5h-13.7l2.9-16h46.5Zm-46.1 57.7-.8 4.5-42.4-4.5h43.2Zm3.4-19.3-.8 4.5-42.4-4.5h43.2Zm1.7-9.6-.8 4.5-42.4-4.5h43.2Zm1.7-9.6-.8 4.5-42.4-4.5h43.2Zm-5.1 28.8-.8 4.5-42.4-4.5h43.2Zm-7-38.4-.7 4.5-42.4-4.5h43.1Zm1.7-9.6-.8 4.5L249 1.5h43.1Z"/><path d="m377.6 54.1-3.9 9.9h-20L380 1.5h29.4l4.4 62.5h-20.1l-.4-9.9h-15.7Zm-25.2 5.1-1.9 4.4-41-4.4h42.9Zm4.1-9.7-1.9 4.4-41-4.4h42.9Zm4-9.6-1.8 4.4-41-4.4h42.8Zm4.1-9.6-1.9 4.4-40.9-4.4h42.8Zm4-9.6-1.8 4.4-40.9-4.4h42.7Zm4-9.6-1.8 4.3-40.8-4.3h42.6Zm2.3-5.3-40.8-4.3h42.6l-1.8 4.3Zm8.9 32.4h8V20.7h-1l-7 17.5Z"/></svg>