<svg width="413.8" height="65.501" viewBox="0 0 413.8 65.501" xmlns="http://www.w3.org/2000/svg">
    <g fill="#000">
        <path d="M 79.4 48.9 L 67 48.9 L 64.4 64 L 45.4 64 L 56.4 1.5 L 86.4 1.5 A 26.531 26.531 0 0 1 92.92 2.23 Q 101.392 4.384 103.015 12.905 A 23.517 23.517 0 0 1 103.4 17.3 Q 103.4 24.8 101.3 30.85 A 54.433 54.433 0 0 1 99.733 34.876 Q 98.917 36.732 98.044 38.264 A 24.827 24.827 0 0 1 96.65 40.45 A 19.177 19.177 0 0 1 92.485 44.636 A 24.594 24.594 0 0 1 89.65 46.45 A 19.718 19.718 0 0 1 82.556 48.707 A 25.012 25.012 0 0 1 79.4 48.9 Z M 43.2 59.2 L 42.4 63.7 L 0 59.2 L 43.2 59.2 Z M 46.6 39.9 L 45.8 44.4 L 3.4 39.9 L 46.6 39.9 Z M 44.9 49.5 L 44.1 54 L 1.7 49.5 L 44.9 49.5 Z M 49.9 20.7 L 49.1 25.2 L 6.8 20.7 L 49.9 20.7 Z M 51.6 11.1 L 50.8 15.6 L 8.5 11.1 L 51.6 11.1 Z M 53.3 1.5 L 52.5 6 L 10.2 1.5 L 53.3 1.5 Z M 48.2 30.3 L 47.4 34.8 L 5.1 30.3 L 48.2 30.3 Z M 69.8 32.9 L 74.2 32.9 Q 77.6 32.9 79.35 32.15 Q 81.1 31.4 81.6 28.7 A 781.584 781.584 0 0 0 81.905 26.955 Q 82.848 21.513 82.897 20.678 A 1.356 1.356 0 0 0 82.9 20.6 A 3.67 3.67 0 0 0 82.788 19.658 Q 82.49 18.536 81.4 18.1 A 6.519 6.519 0 0 0 80.331 17.787 Q 79.195 17.547 77.556 17.508 A 27.541 27.541 0 0 0 76.9 17.5 L 72.5 17.5 L 69.8 32.9 Z"/>
        <path d="M 143.5 54.1 L 139.6 64 L 119.6 64 L 145.9 1.5 L 175.3 1.5 L 179.7 64 L 159.6 64 L 159.2 54.1 L 143.5 54.1 Z M 118.3 59.2 L 116.4 63.6 L 75.4 59.2 L 118.3 59.2 Z M 122.4 49.5 L 120.5 53.9 L 79.5 49.5 L 122.4 49.5 Z M 126.4 39.9 L 124.6 44.3 L 83.6 39.9 L 126.4 39.9 Z M 130.5 30.3 L 128.6 34.7 L 87.7 30.3 L 130.5 30.3 Z M 134.5 20.7 L 132.7 25.1 L 91.8 20.7 L 134.5 20.7 Z M 138.5 11.1 L 136.7 15.4 L 95.9 11.1 L 138.5 11.1 Z M 140.8 5.8 L 100 1.5 L 142.6 1.5 L 140.8 5.8 Z M 149.7 38.2 L 157.7 38.2 L 157.7 20.7 L 156.7 20.7 L 149.7 38.2 Z"/>
        <path d="M 206.8 62.9 L 212.4 46.4 A 71.029 71.029 0 0 0 219.472 47.973 Q 223.295 48.609 226.765 48.689 A 42.943 42.943 0 0 0 227.75 48.7 Q 232.42 48.7 235.938 48.429 A 54.443 54.443 0 0 0 239.1 48.1 L 239.9 43.1 L 231.6 42.3 Q 222.1 41.4 218.15 38 A 11.078 11.078 0 0 1 214.463 31.411 A 16.467 16.467 0 0 1 214.2 28.4 Q 214.2 25.743 214.781 22.503 A 46.385 46.385 0 0 1 214.8 22.4 A 51.879 51.879 0 0 1 216.368 15.916 Q 218.792 8.269 223.2 4.8 A 19.039 19.039 0 0 1 228.83 1.829 Q 233.977 0.057 241.464 0.002 A 65.682 65.682 0 0 1 241.95 0 A 109.74 109.74 0 0 1 252.454 0.479 Q 257.995 1.012 262.834 2.141 A 65.179 65.179 0 0 1 264.3 2.5 L 259.1 18.5 A 142.89 142.89 0 0 0 253.999 17.709 Q 249.107 17.047 245.637 17.003 A 38.43 38.43 0 0 0 245.15 17 A 93.984 93.984 0 0 0 241.416 17.071 Q 238.475 17.188 236.1 17.5 L 235.3 22.4 L 242 23.1 Q 250.93 24.063 255.337 27.057 A 12.171 12.171 0 0 1 256.5 27.95 A 12.319 12.319 0 0 1 260.733 36.465 A 17.15 17.15 0 0 1 260.8 38 A 33.414 33.414 0 0 1 259.553 46.885 A 41.577 41.577 0 0 1 258.1 51.2 A 41.436 41.436 0 0 1 256.808 53.949 Q 255.904 55.692 254.95 57.05 A 15.007 15.007 0 0 1 250.908 60.947 A 17.04 17.04 0 0 1 250.75 61.05 A 36.555 36.555 0 0 1 248.752 62.259 Q 247.347 63.046 246.1 63.55 A 14.92 14.92 0 0 1 244.356 64.125 Q 242.763 64.55 240.7 64.8 A 53.875 53.875 0 0 1 236.941 65.227 Q 234.927 65.389 232.611 65.455 A 116.48 116.48 0 0 1 229.3 65.5 A 102.203 102.203 0 0 1 216.774 64.767 A 78.714 78.714 0 0 1 206.8 62.9 Z M 225.3 44.4 L 172.4 39.9 L 215.5 39.9 A 14.061 14.061 0 0 0 218.963 42.318 Q 220.623 43.159 222.683 43.762 A 30.879 30.879 0 0 0 225.3 44.4 Z M 211.3 25.2 L 168.9 20.7 L 212 20.7 Q 211.5 22.7 211.3 25.2 Z M 171.7 11.1 L 214.7 11.1 L 213.2 15.5 L 171.7 11.1 Z M 169.8 30.3 L 211.3 30.3 A 26.183 26.183 0 0 0 211.506 32.199 Q 211.642 33.116 211.838 33.897 A 12.414 12.414 0 0 0 212.1 34.8 L 169.8 30.3 Z M 179.2 1.5 L 222.2 1.5 A 16.877 16.877 0 0 0 219.744 3.47 A 22.79 22.79 0 0 0 217.8 5.6 L 179.2 1.5 Z M 206.6 53.9 L 170.7 49.5 L 208.1 49.5 L 206.6 53.9 Z M 203.4 63.6 L 169 59.2 L 204.9 59.2 L 203.4 63.6 Z"/>
        <path d="M 341.8 1.5 L 338.9 17.5 L 325.1 17.5 L 317 64 L 298 64 L 306.1 17.5 L 292.4 17.5 L 295.3 1.5 L 341.8 1.5 Z M 295.7 59.2 L 294.9 63.7 L 252.5 59.2 L 295.7 59.2 Z M 299.1 39.9 L 298.3 44.4 L 255.9 39.9 L 299.1 39.9 Z M 300.8 30.3 L 300 34.8 L 257.6 30.3 L 300.8 30.3 Z M 302.5 20.7 L 301.7 25.2 L 259.3 20.7 L 302.5 20.7 Z M 297.4 49.5 L 296.6 54 L 254.2 49.5 L 297.4 49.5 Z M 290.4 11.1 L 289.7 15.6 L 247.3 11.1 L 290.4 11.1 Z M 292.1 1.5 L 291.3 6 L 249 1.5 L 292.1 1.5 Z"/>
        <path d="M 377.6 54.1 L 373.7 64 L 353.7 64 L 380 1.5 L 409.4 1.5 L 413.8 64 L 393.7 64 L 393.3 54.1 L 377.6 54.1 Z M 352.4 59.2 L 350.5 63.6 L 309.5 59.2 L 352.4 59.2 Z M 356.5 49.5 L 354.6 53.9 L 313.6 49.5 L 356.5 49.5 Z M 360.5 39.9 L 358.7 44.3 L 317.7 39.9 L 360.5 39.9 Z M 364.6 30.3 L 362.7 34.7 L 321.8 30.3 L 364.6 30.3 Z M 368.6 20.7 L 366.8 25.1 L 325.9 20.7 L 368.6 20.7 Z M 372.6 11.1 L 370.8 15.4 L 330 11.1 L 372.6 11.1 Z M 374.9 5.8 L 334.1 1.5 L 376.7 1.5 L 374.9 5.8 Z M 383.8 38.2 L 391.8 38.2 L 391.8 20.7 L 390.8 20.7 L 383.8 38.2 Z"/>
    </g>
</svg>
